<svg width="512" height="512" viewBox="0 0 512 512" fill="none" xmlns="http://www.w3.org/2000/svg">
  <rect width="512" height="512" rx="100" fill="#1DB954"/>
  <circle cx="256" cy="256" r="180" fill="#121212"/>
  <circle cx="256" cy="256" r="60" fill="#1DB954"/>
  <path d="M256 76C156.589 76 76 156.589 76 256C76 355.411 156.589 436 256 436C355.411 436 436 355.411 436 256C436 156.589 355.411 76 256 76ZM256 396C178.832 396 116 333.168 116 256C116 178.832 178.832 116 256 116C333.168 116 396 178.832 396 256C396 333.168 333.168 396 256 396Z" fill="#1DB954"/>
  <text x="256" y="280" font-family="Arial Black, sans-serif" font-size="80" font-weight="bold" fill="white" text-anchor="middle">AL</text>
</svg>
